<svg xmlns="http://www.w3.org/2000/svg" viewBox="0 0 300 300" fill="none">
  <defs>
    <linearGradient id="grad3" x1="0%" y1="0%" x2="100%" y2="100%">
      <stop offset="0%" stop-color="#fbbf24" stop-opacity="0.18"/>
      <stop offset="100%" stop-color="#0891b2" stop-opacity="0.12"/>
    </linearGradient>
  </defs>
  <!-- Elementos clínicos sutiles: manos con guantes, instrumental, tecnología -->
  <g opacity="0.7">
    <!-- Mano con guante sosteniendo espejo dental -->
    <path d="M150 80 Q180 60 210 80 Q230 100 220 140 Q210 180 150 200 Q90 180 80 140 Q70 100 120 80 Q150 60 150 80" fill="url(#grad3)" stroke="#fbbf24" stroke-width="1.5" opacity="0.5"/>
    <ellipse cx="185" cy="110" rx="12" ry="8" fill="#fbbf24" opacity="0.4"/>
    <!-- Instrumental sutil -->
    <path d="M80 180 L120 140" stroke="#0891b2" stroke-width="3" stroke-linecap="round" opacity="0.4"/>
    <path d="M220 180 L180 140" stroke="#0891b2" stroke-width="3" stroke-linecap="round" opacity="0.4"/>
    <circle cx="120" cy="140" r="6" fill="#0891b2" opacity="0.3"/>
    <circle cx="180" cy="140" r="6" fill="#0891b2" opacity="0.3"/>
  </g>
  <!-- Patrón de fondo muy sutil -->
  <g opacity="0.15" fill="#0891b2">
    <circle cx="50" cy="50" r="30"/>
    <circle cx="250" cy="250" r="40"/>
    <circle cx="250" cy="50" r="25"/>
    <circle cx="50" cy="250" r="35"/>
  </g>
  <text x="150" y="280" text-anchor="middle" font-family="system-ui" font-size="12" fill="#0891b2" opacity="0.5">[PLACEHOLDER: Detalle clínico - tecnología + toque humano]</text>
</svg>
